<svg xmlns="http://www.w3.org/2000/svg" width="94" height="93" viewBox="0 0 94 93" fill="none">
  <g filter="url(#filter0_d_1_4238)">
    <path fill-rule="evenodd" clip-rule="evenodd" d="M48.2061 2.01853C48.254 2.01728 48.3021 2.01721 48.3499 2.01863C56.4426 2.25821 64.311 4.76368 71.0334 9.25682C77.9438 13.869 83.3527 20.3633 86.605 27.9528C89.3929 34.4642 90.4907 41.5611 89.7986 48.5986C89.1065 55.636 86.6465 62.391 82.6421 68.2496C77.9775 75.0809 71.4088 80.4282 63.7321 83.6436C57.145 86.3995 49.9657 87.4847 42.8465 86.8005C35.7273 86.1164 28.8939 83.6846 22.9671 79.7261C16.0567 75.1135 10.6473 68.6191 7.3944 61.0294C4.60693 54.5177 3.50939 47.4208 4.20145 40.3832C4.89351 33.3456 7.35325 26.5905 11.3572 20.7315C11.9483 19.8666 12.579 19.0111 13.2426 18.1847C13.9595 17.1041 15.1958 16.3904 16.6007 16.3904C18.8171 16.3904 20.6138 18.1666 20.6138 20.3575C20.6138 21.2789 20.296 22.1269 19.7629 22.8004L19.7709 22.8063C14.7859 28.9147 12.0495 36.5169 12.0107 44.3652C11.9719 52.2135 14.6331 59.8418 19.5575 65.998C24.4819 72.1543 31.377 76.4729 39.1112 78.2451C46.8454 80.0173 54.9593 79.1377 62.1212 75.7509C69.2832 72.364 75.0678 66.671 78.5257 59.6061C81.9837 52.5413 82.9095 44.5242 81.1512 36.8707C79.393 29.2172 75.0552 22.3818 68.8497 17.4864C63.0089 12.8787 55.8402 10.2473 48.3977 9.95664C48.3378 9.9543 48.2912 9.95197 48.2542 9.9497C48.2096 9.95115 48.1648 9.95188 48.1198 9.95188C45.9035 9.95188 44.1068 8.17574 44.1068 5.98476C44.1068 3.79377 45.9035 2.01763 48.1198 2.01763C48.1486 2.01763 48.1774 2.01793 48.2061" fill="url(#paint0_angular_1_4238)"/>
  </g>
  <defs>
    <filter id="filter0_d_1_4238" x="0.463038" y="0.249097" width="93.0739" height="92.0561" filterUnits="userSpaceOnUse" color-interpolation-filters="sRGB">
      <feFlood flood-opacity="0" result="BackgroundImageFix"/>
      <feColorMatrix in="SourceAlpha" type="matrix" values="0 0 0 0 0 0 0 0 0 0 0 0 0 0 0 0 0 0 127 0" result="hardAlpha"/>
      <feOffset dy="1.76848"/>
      <feGaussianBlur stdDeviation="1.76848"/>
      <feColorMatrix type="matrix" values="0 0 0 0 0 0 0 0 0 0 0 0 0 0 0 0 0 0 0.514 0"/>
      <feBlend mode="normal" in2="BackgroundImageFix" result="effect1_dropShadow_1_4238"/>
      <feBlend mode="normal" in="SourceGraphic" in2="effect1_dropShadow_1_4238" result="shape"/>
    </filter>
    <radialGradient id="paint0_angular_1_4238" cx="0" cy="0" r="1" gradientUnits="userSpaceOnUse" gradientTransform="translate(48.7168 44.3157) rotate(-130.927) scale(38.5052 38.5703)">
  <stop stop-color="#FFC707"/>
  <stop offset="0.121606" stop-color="#FF7000"/>
  <stop offset="1" stop-color="#FFC707"/>
</radialGradient>

  </defs>
</svg>